<svg xmlns="http://www.w3.org/2000/svg" version="1.1" xmlns:xlink="http://www.w3.org/1999/xlink" xmlns:svgjs="http://svgjs.dev/svgjs" width="1000" height="623" viewBox="0 0 1000 623"><g transform="matrix(1,0,0,1,-0.6060606060606233,0.2522267206477409)"><svg viewBox="0 0 396 247" data-background-color="#001f3f" preserveAspectRatio="xMidYMid meet" height="623" width="1000" xmlns="http://www.w3.org/2000/svg" xmlns:xlink="http://www.w3.org/1999/xlink"><g id="tight-bounds" transform="matrix(1,0,0,1,0.2400000000000091,-0.09999999999999432)"><svg viewBox="0 0 395.52 247.2" height="247.2" width="395.52"><g><svg></svg></g><g><svg viewBox="0 0 395.52 247.2" height="247.2" width="395.52"><g transform="matrix(1,0,0,1,89.07102008486562,47.215199999999996)"><svg viewBox="0 0 217.37795983026874 152.7696" height="152.7696" width="217.37795983026874"><g><svg viewBox="0 0 217.37795983026874 152.7696" height="152.7696" width="217.37795983026874"><g><svg viewBox="0 0 217.37795983026874 152.7696" height="152.7696" width="217.37795983026874"><g><svg viewBox="0 0 217.37795983026874 152.7696" height="152.7696" width="217.37795983026874"><g id="textblocktransform"><svg viewBox="0 0 217.37795983026874 152.7696" height="152.7696" width="217.37795983026874" id="textblock"><g><svg viewBox="0 0 217.37795983026874 152.7696" height="152.7696" width="217.37795983026874"><g transform="matrix(1,0,0,1,0,0)"><svg width="217.37795983026874" viewBox="1.7000000476837158 -29.450000762939453 50.29999923706055 35.35000228881836" height="152.7696" data-palette-color="#f0cf90"><path d="M10.85-24.7L10.85-24.7Q12.8-27.15 17.75-28.05L17.75-28.05Q19.9-28.4 22.15-28.4 24.4-28.4 26.8-28L26.8-28Q28.1-29.45 29.45-29.45L29.45-29.45Q29.8-29.45 29.93-29.28 30.05-29.1 29.9-28.9 29.75-28.7 29.23-28.53 28.7-28.35 28-27.75L28-27.75Q29.7-27.25 30.35-26.93 31-26.6 31.33-26.1 31.65-25.6 31.65-25.4L31.65-25.4Q31.65-24.95 30.28-25.4 28.9-25.85 27.05-26.1L27.05-26.1Q26.15-23.95 25.15-20.2 24.15-16.45 23.95-15.7L23.95-15.7Q26.65-16.35 27.58-16.35 28.5-16.35 28.7-16.23 28.9-16.1 28.93-15.9 28.95-15.7 28.85-15.58 28.75-15.45 28.53-15.55 28.3-15.65 27.7-15.65 27.1-15.65 25.45-15.23 23.8-14.8 23.5-13.95L23.5-13.95Q18.9-1.3 11.8 3.65L11.8 3.65Q8.65 5.9 6.05 5.9L6.05 5.9Q5.1 5.9 4.25 5.6L4.25 5.6Q1.7 4.75 1.7 1.83 1.7-1.1 4.75-4.6L4.75-4.6Q10.9-11.65 21.35-14.95L21.35-14.95Q21.5-15.4 22.3-17.9L22.3-17.9Q24.05-23.6 25.55-26.2L25.55-26.2Q24.95-26.2 23.75-26.2 22.55-26.2 20.35-25.95L20.35-25.95Q14.7-25.3 12.3-23.1L12.3-23.1Q11.05-21.9 11.05-20.35L11.05-20.35Q11.05-19.6 11.48-19 11.9-18.4 12.3-18.15L12.3-18.15Q12.95-17.7 14.05-17.15L14.05-17.15Q14.65-16.7 14.3-16.6L14.3-16.6Q14.15-16.6 13.95-16.65L13.95-16.65Q12.75-16.9 11.4-18.1 10.05-19.3 10-20.85L10-20.85Q9.85-21.4 9.85-21.75L9.85-21.75Q9.85-23.4 10.85-24.7ZM4.3 1.45L4.3 1.45Q4.3 2 4.4 2.55L4.4 2.55Q4.9 4.45 6.9 4.45L6.9 4.45Q9.85 4.45 13.1 0.5L13.1 0.5Q17.9-5.35 21.05-14L21.05-14Q12.3-11.15 7.2-4.75L7.2-4.75Q4.3-1.2 4.3 1.45ZM33.3-11.15L33.3-11.15Q33.3-13.55 31.9-13.55L31.9-13.55Q31.6-13.55 31.27-13.48 30.95-13.4 30.95-13.6 30.95-13.8 31.25-14.1L31.25-14.1Q31.55-14.35 33.3-14.5L33.3-14.5Q35.4-14.5 35.92-13.9 36.45-13.3 36.45-12.7 36.45-12.1 35.52-9.73 34.6-7.35 34.55-7.25L34.55-7.25Q33.05-2.75 33.2-1.6L33.2-1.6Q37.7-7.65 39.1-9.15L39.1-9.15Q42.05-12.4 43.3-13.6L43.3-13.6Q46.2-16.3 48.4-17.25L48.4-17.25Q49.05-17.5 49.55-17.5L49.55-17.5Q51.2-17.5 51.8-16.5L51.8-16.5Q52-16.25 52-16.03 52-15.8 51.85-15.5 51.7-15.2 51.3-15.53 50.9-15.85 49.5-15.85L49.5-15.85Q47.2-15.85 41.8-10.45L41.8-10.45Q38.55-7.1 35.82-3.45 33.1 0.2 32.9 1.75L32.9 1.75Q32.9 2.15 32.15 2.15 31.4 2.15 31.02 1.53 30.65 0.9 30.65 0.48 30.65 0.05 30.7-0.28 30.75-0.6 31.7-3.95 32.65-7.3 32.9-8.4L32.9-8.4Q32.3-7.4 31.25-5.95L31.25-5.95Q30.9-5.55 30.67-5.73 30.45-5.9 30.45-6.05 30.45-6.2 30.55-6.4L30.55-6.4Q32.65-9.25 33.3-11.15Z" opacity="1" transform="matrix(1,0,0,1,0,0)" fill="#f0cf90" class="wordmark-text-0" data-fill-palette-color="primary" id="text-0"></path></svg></g></svg></g></svg></g></svg></g></svg></g></svg></g></svg></g><g><path d="M232.289 0c68.262 0 123.6 55.338 123.6 123.6 0 68.262-55.338 123.6-123.6 123.6-30.402 0-58.24-10.976-79.768-29.183l11.147 0c19.26 14.022 42.974 22.294 68.621 22.295 64.458 0 116.712-52.254 116.712-116.712 0-64.458-52.254-116.712-116.712-116.712-25.647 0-49.361 8.272-68.621 22.295l-11.147 0c21.528-18.206 49.366-29.183 79.768-29.183z" fill="#f0cf90" stroke="transparent" data-fill-palette-color="tertiary"></path></g></svg></g><defs></defs></svg><rect width="395.52" height="247.2" fill="none" stroke="none" visibility="hidden"></rect></g></svg></g></svg>